<svg width="60" height="58" viewBox="0 0 60 58" fill="none" xmlns="http://www.w3.org/2000/svg">
<circle cx="25" cy="25" r="25" fill="#96D6FF"/>
<path d="M26.05 22.2C27.2 22.2 28.2333 22.425 29.15 22.875C30.0667 23.3083 30.7833 23.9333 31.3 24.75C31.8167 25.5667 32.075 26.5083 32.075 27.575C32.075 28.7083 31.7917 29.7083 31.225 30.575C30.6583 31.425 29.8917 32.0833 28.925 32.55C27.9583 33.0167 26.875 33.25 25.675 33.25C23.275 33.25 21.4083 32.5 20.075 31C18.7583 29.5 18.1 27.35 18.1 24.55C18.1 22.5833 18.4583 20.9083 19.175 19.525C19.8917 18.125 20.8917 17.0667 22.175 16.35C23.475 15.6167 24.975 15.25 26.675 15.25C27.575 15.25 28.4167 15.35 29.2 15.55C30 15.7333 30.6917 16.0083 31.275 16.375L30.075 18.825C29.2083 18.2583 28.1 17.975 26.75 17.975C25.0667 17.975 23.75 18.4917 22.8 19.525C21.85 20.5583 21.375 22.05 21.375 24V24.025C21.8917 23.425 22.55 22.975 23.35 22.675C24.15 22.3583 25.05 22.2 26.05 22.2ZM25.5 30.7C26.5167 30.7 27.3417 30.4333 27.975 29.9C28.6083 29.35 28.925 28.625 28.925 27.725C28.925 26.8083 28.6083 26.0833 27.975 25.55C27.3417 25.0167 26.4917 24.75 25.425 24.75C24.375 24.75 23.5167 25.0333 22.85 25.6C22.2 26.1667 21.875 26.8833 21.875 27.75C21.875 28.6 22.1917 29.3083 22.825 29.875C23.475 30.425 24.3667 30.7 25.5 30.7Z" fill="white"/>
</svg>
