<svg width="60" height="58" viewBox="0 0 60 58" fill="none" xmlns="http://www.w3.org/2000/svg">
<circle cx="25" cy="25" r="25" fill="#96D6FF"/>
<path d="M26.55 22.725C28.1667 22.925 29.4 23.475 30.25 24.375C31.1 25.275 31.525 26.4 31.525 27.75C31.525 28.7667 31.2667 29.6917 30.75 30.525C30.2333 31.3583 29.45 32.025 28.4 32.525C27.3667 33.0083 26.1 33.25 24.6 33.25C23.35 33.25 22.1417 33.075 20.975 32.725C19.825 32.3583 18.8417 31.8583 18.025 31.225L19.425 28.7C20.0583 29.2333 20.825 29.6583 21.725 29.975C22.6417 30.275 23.5833 30.425 24.55 30.425C25.7 30.425 26.6 30.1917 27.25 29.725C27.9167 29.2417 28.25 28.5917 28.25 27.775C28.25 26.9583 27.9333 26.325 27.3 25.875C26.6833 25.4083 25.7333 25.175 24.45 25.175H22.85V22.95L26.825 18.225H18.875V15.5H30.8V17.675L26.55 22.725Z" fill="white"/>
</svg>
