<svg width="60" height="58" viewBox="0 0 60 58" fill="none" xmlns="http://www.w3.org/2000/svg">
<circle cx="25" cy="25" r="25" fill="#96D6FF"/>
<path d="M31.775 30.25V33H18.875V30.825L25.825 24.225C26.6083 23.475 27.1333 22.825 27.4 22.275C27.6833 21.7083 27.825 21.15 27.825 20.6C27.825 19.7833 27.55 19.1583 27 18.725C26.45 18.2917 25.6417 18.075 24.575 18.075C22.7917 18.075 21.425 18.6833 20.475 19.9L18.2 18.15C18.8833 17.2333 19.8 16.525 20.95 16.025C22.1167 15.5083 23.4167 15.25 24.85 15.25C26.75 15.25 28.2667 15.7 29.4 16.6C30.5333 17.5 31.1 18.725 31.1 20.275C31.1 21.225 30.9 22.1167 30.5 22.95C30.1 23.7833 29.3333 24.7333 28.2 25.8L23.525 30.25H31.775Z" fill="white"/>
</svg>
