<svg width="60" height="58" viewBox="0 0 60 58" fill="none" xmlns="http://www.w3.org/2000/svg">
<circle cx="25" cy="25" r="25" fill="#96D6FF"/>
<path d="M24.575 22.275C27.0417 22.275 28.8667 22.7583 30.05 23.725C31.2333 24.675 31.825 25.975 31.825 27.625C31.825 28.675 31.5667 29.625 31.05 30.475C30.5333 31.325 29.7583 32 28.725 32.5C27.6917 33 26.4167 33.25 24.9 33.25C23.65 33.25 22.4417 33.075 21.275 32.725C20.1083 32.3583 19.125 31.8583 18.325 31.225L19.7 28.7C20.35 29.2333 21.125 29.6583 22.025 29.975C22.9417 30.275 23.8833 30.425 24.85 30.425C26 30.425 26.9 30.1917 27.55 29.725C28.2167 29.2417 28.55 28.5833 28.55 27.75C28.55 26.85 28.1917 26.175 27.475 25.725C26.775 25.2583 25.5667 25.025 23.85 25.025H19.625L20.525 15.5H30.8V18.225H23.275L22.9 22.275H24.575Z" fill="white"/>
</svg>
